<?xml version="1.0" encoding="utf-8"?>
<!-- Generator: Adobe Illustrator 22.1.0, SVG Export Plug-In . SVG Version: 6.00 Build 0)  -->
<svg version="1.1" id="Layer_1" xmlns="http://www.w3.org/2000/svg" xmlns:xlink="http://www.w3.org/1999/xlink" x="0px" y="0px"
	 viewBox="0 0 112 107" style="enable-background:new 0 0 112 107;" xml:space="preserve">
<style type="text/css">
	.st0{fill:url(#SVGID_1_);}
	.st1{fill:#FFEC40;}
	.st2{fill:none;stroke:url(#SVGID_2_);stroke-width:9;stroke-miterlimit:10;}
	.st3{fill:none;stroke:url(#SVGID_3_);stroke-width:9;stroke-linecap:round;stroke-miterlimit:10;}
	.st4{fill:none;stroke:url(#SVGID_4_);stroke-width:9;stroke-linecap:round;stroke-miterlimit:10;}
	.st5{fill:none;stroke:url(#SVGID_5_);stroke-width:9;stroke-linecap:round;stroke-linejoin:round;stroke-miterlimit:10;}
	.st6{fill:none;stroke:url(#SVGID_6_);stroke-width:9;stroke-linecap:round;stroke-linejoin:round;stroke-miterlimit:10;}
	.st7{fill:none;stroke:url(#SVGID_7_);stroke-width:9;stroke-linecap:round;stroke-linejoin:round;stroke-miterlimit:10;}
	.st8{fill:none;stroke:url(#SVGID_8_);stroke-width:9;stroke-linecap:round;stroke-linejoin:round;stroke-miterlimit:10;}
	.st9{fill:none;stroke:url(#SVGID_9_);stroke-width:9;stroke-linecap:round;stroke-linejoin:round;stroke-miterlimit:10;}
	.st10{fill:url(#SVGID_10_);}
	.st11{fill:#D3BD37;}
	.st12{fill:#EFD93A;}
	.st13{fill:url(#SVGID_11_);}
	.st14{fill:none;stroke:#EFC100;stroke-width:7;stroke-linecap:round;stroke-linejoin:round;stroke-miterlimit:10;}
	.st15{fill:none;stroke:url(#SVGID_12_);stroke-width:9;stroke-linecap:round;stroke-linejoin:round;stroke-miterlimit:10;}
	.st16{fill:none;stroke:url(#SVGID_13_);stroke-width:9;stroke-linecap:round;stroke-linejoin:round;stroke-miterlimit:10;}
	.st17{fill:none;stroke:url(#SVGID_14_);stroke-width:9;stroke-linecap:round;stroke-linejoin:round;stroke-miterlimit:10;}
	.st18{fill:url(#SVGID_15_);stroke:url(#SVGID_16_);stroke-width:9;stroke-linecap:round;stroke-miterlimit:10;}
	.st19{fill:url(#SVGID_17_);stroke:url(#SVGID_18_);stroke-width:9;stroke-linecap:round;stroke-miterlimit:10;}
	.st20{fill:url(#SVGID_19_);stroke:url(#SVGID_20_);stroke-width:9;stroke-linecap:round;stroke-miterlimit:10;}
	.st21{fill:none;stroke:url(#SVGID_21_);stroke-width:9;stroke-linecap:round;stroke-miterlimit:10;}
	.st22{fill:none;stroke:url(#SVGID_22_);stroke-width:9;stroke-linecap:round;stroke-miterlimit:10;}
	.st23{fill:none;stroke:url(#SVGID_23_);stroke-width:9;stroke-linecap:round;stroke-linejoin:round;stroke-miterlimit:10;}
	.st24{fill:none;stroke:url(#SVGID_24_);stroke-width:9;stroke-linecap:round;stroke-linejoin:round;stroke-miterlimit:10;}
	.st25{fill:none;stroke:url(#SVGID_25_);stroke-width:9;stroke-linecap:round;stroke-miterlimit:10;}
	.st26{fill:none;stroke:url(#SVGID_26_);stroke-width:9;stroke-linecap:round;stroke-miterlimit:10;}
	.st27{fill:none;stroke:url(#SVGID_27_);stroke-width:9;stroke-linecap:round;stroke-miterlimit:10;}
	.st28{fill:none;stroke:url(#SVGID_28_);stroke-width:9;stroke-linecap:round;stroke-miterlimit:10;}
	.st29{fill:none;stroke:url(#SVGID_29_);stroke-width:9;stroke-linecap:round;stroke-miterlimit:10;}
	.st30{fill:none;stroke:url(#SVGID_30_);stroke-width:9;stroke-linecap:round;stroke-miterlimit:10;}
	.st31{fill:none;stroke:url(#SVGID_31_);stroke-width:9;stroke-linecap:round;stroke-linejoin:round;stroke-miterlimit:10;}
	.st32{fill:none;stroke:url(#SVGID_32_);stroke-width:9;stroke-linecap:round;stroke-linejoin:round;stroke-miterlimit:10;}
	.st33{fill:none;stroke:url(#SVGID_33_);stroke-width:9;stroke-linecap:round;stroke-linejoin:round;stroke-miterlimit:10;}
	.st34{fill:none;stroke:url(#SVGID_34_);stroke-width:9;stroke-linecap:round;stroke-linejoin:round;stroke-miterlimit:10;}
	.st35{fill:url(#SVGID_35_);}
	.st36{fill:url(#SVGID_36_);}
	.st37{fill:url(#SVGID_37_);}
	.st38{fill:url(#SVGID_38_);}
	.st39{fill:url(#SVGID_39_);}
	.st40{fill:none;stroke:url(#SVGID_40_);stroke-width:9;stroke-linecap:round;stroke-miterlimit:10;}
	.st41{fill:none;stroke:url(#SVGID_41_);stroke-width:9;stroke-linecap:round;stroke-linejoin:round;stroke-miterlimit:10;}
	.st42{fill:none;stroke:url(#SVGID_42_);stroke-width:9;stroke-linecap:round;stroke-linejoin:round;stroke-miterlimit:10;}
	.st43{fill:none;stroke:url(#SVGID_43_);stroke-width:9;stroke-linecap:round;stroke-linejoin:round;stroke-miterlimit:10;}
	.st44{fill:none;stroke:url(#SVGID_44_);stroke-width:9;stroke-linecap:round;stroke-linejoin:round;stroke-miterlimit:10;}
	.st45{fill:none;stroke:url(#SVGID_45_);stroke-width:9;stroke-linecap:round;stroke-linejoin:round;stroke-miterlimit:10;}
	.st46{fill:url(#SVGID_46_);}
	.st47{fill:#FFFFFF;}
	.st48{fill:#FCF9E3;}
	.st49{fill:#D3B400;}
</style>
<g>
	<linearGradient id="SVGID_1_" gradientUnits="userSpaceOnUse" x1="8.323" y1="46.4269" x2="104.2942" y2="60.5731">
		<stop  offset="0" style="stop-color:#FEBC85"/>
		<stop  offset="1" style="stop-color:#FF7A80"/>
	</linearGradient>
	<path class="st0" d="M56.3,5C29.6,5,7.8,26.8,7.8,53.5S29.6,102,56.3,102s48.5-21.8,48.5-48.5S83.1,5,56.3,5z M56.3,97.5
		c-24.2,0-44-19.7-44-44c0-24.2,19.7-44,44-44c24.2,0,44,19.7,44,44C100.3,77.7,80.5,97.5,56.3,97.5z"/>
	<linearGradient id="SVGID_2_" gradientUnits="userSpaceOnUse" x1="31.6585" y1="39.3134" x2="56.2032" y2="42.9313">
		<stop  offset="0" style="stop-color:#FEBC85"/>
		<stop  offset="1" style="stop-color:#FF7A80"/>
	</linearGradient>
	<path style="fill:url(#SVGID_2_);" d="M52.8,29.8H35c-1.3,0-2.3,1-2.3,2.3v18.2c0,1.3,1,2.3,2.3,2.3h17.8c1.3,0,2.3-1,2.3-2.3V32
		C55.1,30.8,54.1,29.8,52.8,29.8z M50.6,47.9H37.3V34.3h13.3V47.9z"/>
	<linearGradient id="SVGID_3_" gradientUnits="userSpaceOnUse" x1="56.4138" y1="39.3134" x2="80.9584" y2="42.9313">
		<stop  offset="0" style="stop-color:#FEBC85"/>
		<stop  offset="1" style="stop-color:#FF7A80"/>
	</linearGradient>
	<path style="fill:url(#SVGID_3_);" d="M77.6,29.8H59.8c-1.3,0-2.3,1-2.3,2.3v18.2c0,1.3,1,2.3,2.3,2.3h17.8c1.3,0,2.3-1,2.3-2.3V32
		C79.9,30.8,78.8,29.8,77.6,29.8z M75.3,47.9H62.1V34.3h13.3V47.9z"/>
	<linearGradient id="SVGID_4_" gradientUnits="userSpaceOnUse" x1="31.6585" y1="64.0686" x2="56.2032" y2="67.6865">
		<stop  offset="0" style="stop-color:#FEBC85"/>
		<stop  offset="1" style="stop-color:#FF7A80"/>
	</linearGradient>
	<path style="fill:url(#SVGID_4_);" d="M52.8,54.5H35c-1.3,0-2.3,1-2.3,2.3V75c0,1.3,1,2.3,2.3,2.3h17.8c1.3,0,2.3-1,2.3-2.3V56.8
		C55.1,55.5,54.1,54.5,52.8,54.5z M50.6,72.7H37.3V59.1h13.3V72.7z"/>
	<linearGradient id="SVGID_5_" gradientUnits="userSpaceOnUse" x1="56.4138" y1="64.0686" x2="80.9584" y2="67.6865">
		<stop  offset="0" style="stop-color:#FEBC85"/>
		<stop  offset="1" style="stop-color:#FF7A80"/>
	</linearGradient>
	<path style="fill:url(#SVGID_5_);" d="M77.6,54.5H59.8c-1.3,0-2.3,1-2.3,2.3V75c0,1.3,1,2.3,2.3,2.3h17.8c1.3,0,2.3-1,2.3-2.3V56.8
		C79.9,55.5,78.8,54.5,77.6,54.5z M75.3,72.7H62.1V59.1h13.3V72.7z"/>
</g>
</svg>
