<?xml version="1.0" encoding="utf-8"?>
<!-- Generator: Adobe Illustrator 22.1.0, SVG Export Plug-In . SVG Version: 6.00 Build 0)  -->
<svg version="1.1" id="Layer_1" xmlns="http://www.w3.org/2000/svg" xmlns:xlink="http://www.w3.org/1999/xlink" x="0px" y="0px"
	 viewBox="0 0 1300 1533" style="enable-background:new 0 0 1300 1533;" xml:space="preserve">
<style type="text/css">
	.st0{fill:#F9F9F9;}
	.st1{fill:#EDD56E;}
	.st2{fill:#FFEC8F;}
	.st3{fill:#D3DADD;}
	.st4{fill:#FFFFFF;}
	.st5{fill:url(#SVGID_1_);}
	.st6{fill:#AEB9BA;}
	.st7{fill:#FF4853;}
	.st8{fill:#F4C9BE;}
	.st9{fill:#FFA183;}
	.st10{fill:#E57403;}
	.st11{fill:#FFCC88;}
	.st12{fill:#F7DAC4;}
	.st13{fill:#E88179;}
	.st14{fill:#EAAA7F;}
	.st15{fill:#FFB884;}
	.st16{fill:#FFB485;}
	.st17{fill:#FF9082;}
	.st18{fill:#FFA099;}
</style>
<g>
	<path class="st0" d="M1176.9,819.8c0,295.5-331,692.2-609.5,692.2S83,1193.3,83,897.7S525,326,803.6,326S1176.9,524.2,1176.9,819.8
		z"/>
</g>
<g>
	<g>
		<g>
			<path class="st1" d="M625.6,838.2c-0.5,0-1.1-0.2-1.6-0.5C553,787,503.7,705.1,474.8,645.3c-31.2-64.7-45.9-118.2-46-118.7
				c-0.4-1.4,0.5-2.9,1.9-3.3c1.4-0.4,2.9,0.5,3.3,1.9c0.1,0.5,14.7,53.6,45.7,117.9c28.6,59.2,77.3,140.3,147.4,190.3
				c1.2,0.9,1.5,2.5,0.6,3.8C627.3,837.8,626.5,838.2,625.6,838.2z"/>
		</g>
	</g>
	<g>
		<path class="st1" d="M432.7,528.6c0,0,7.1-51.3-7.4-46.2C410.9,487.5,404.7,504.7,432.7,528.6z"/>
	</g>
	<g>
		<path class="st1" d="M438.6,554.7c0,0-30.6-49.8-38.3-35.2S399.9,553.6,438.6,554.7z"/>
	</g>
	<g>
		<path class="st1" d="M440.4,548.6c0,0,15.9-56.2,27.2-44.3C479,516.3,477.2,537,440.4,548.6z"/>
	</g>
	<g>
		<path class="st1" d="M454.4,589.2c0,0,15.9-56.2,27.2-44.3C493,556.9,491.2,577.6,454.4,589.2z"/>
	</g>
	<g>
		<path class="st1" d="M470.7,632.9c0,0,15.9-56.2,27.2-44.3S507.5,621.3,470.7,632.9z"/>
	</g>
	<g>
		<path class="st1" d="M488.8,671.5c0,0,15.9-56.2,27.2-44.3C527.4,639.2,525.7,659.9,488.8,671.5z"/>
	</g>
	<g>
		<path class="st1" d="M513.7,713.8c0,0,15.9-56.2,27.2-44.3C552.3,681.4,550.6,702.1,513.7,713.8z"/>
	</g>
	<g>
		<path class="st1" d="M540.4,750.9c0,0,15.9-56.2,27.2-44.3C579,718.6,577.2,739.3,540.4,750.9z"/>
	</g>
	<g>
		<path class="st1" d="M573.6,798.5c0,0,15.9-56.2,27.2-44.3C612.2,766.1,610.5,786.8,573.6,798.5z"/>
	</g>
	<g>
		<path class="st1" d="M452.7,591.9c0,0-42.7-39.9-46.2-23.7C403,584.3,415.2,601.1,452.7,591.9z"/>
	</g>
	<g>
		<path class="st1" d="M471.8,634.3c0,0-42.7-39.9-46.2-23.7C422.1,626.7,434.3,643.5,471.8,634.3z"/>
	</g>
	<g>
		<path class="st1" d="M495.4,672.3c0,0-50-30.3-50.1-13.8C445.2,674.9,460.5,688.9,495.4,672.3z"/>
	</g>
	<g>
		<path class="st1" d="M516.5,715.4c0,0-50-30.3-50.1-13.8C466.3,718,481.6,732,516.5,715.4z"/>
	</g>
	<g>
		<path class="st1" d="M546.6,756c0,0-50-30.3-50.1-13.8S511.7,772.6,546.6,756z"/>
	</g>
	<g>
		<path class="st1" d="M580.4,795.7c0,0-50-30.3-50.1-13.8S545.5,812.4,580.4,795.7z"/>
	</g>
</g>
<g>
	<g>
		<g>
			<path class="st1" d="M991.9,909.3c-0.1,0-0.1,0-0.2,0c-1.5-0.1-2.6-1.4-2.5-2.9c6.8-87,51.6-171.5,88-227
				c39.4-60.1,77.7-100.2,78.1-100.6c1-1.1,2.7-1.1,3.8-0.1c1.1,1,1.1,2.7,0.1,3.8c-0.4,0.4-38.4,40.2-77.5,99.9
				c-36,55-80.4,138.5-87.1,224.4C994.4,908.2,993.3,909.3,991.9,909.3z"/>
		</g>
	</g>
	<g>
		<path class="st1" d="M1155.5,583.1c0,0,47.6-20.4,35.8-30.1S1161.5,546.8,1155.5,583.1z"/>
	</g>
	<g>
		<path class="st1" d="M1136.2,601.6c0,0,26.9-51.9,10.4-50.9C1130.1,551.6,1117.2,567.9,1136.2,601.6z"/>
	</g>
	<g>
		<path class="st1" d="M1142.3,600c0,0,56.4-15.4,52,0.5C1189.9,616.4,1171.3,625.6,1142.3,600z"/>
	</g>
	<g>
		<path class="st1" d="M1114.8,632.9c0,0,56.4-15.4,52,0.5C1162.3,649.3,1143.7,658.5,1114.8,632.9z"/>
	</g>
	<g>
		<path class="st1" d="M1085.7,669.4c0,0,56.4-15.4,52,0.5C1133.3,685.8,1114.7,695,1085.7,669.4z"/>
	</g>
	<g>
		<path class="st1" d="M1061.9,704.8c0,0,56.4-15.4,52,0.5S1090.9,730.4,1061.9,704.8z"/>
	</g>
	<g>
		<path class="st1" d="M1038.6,747.9c0,0,56.4-15.4,52,0.5C1086.1,764.3,1067.5,773.5,1038.6,747.9z"/>
	</g>
	<g>
		<path class="st1" d="M1020.5,789.9c0,0,56.4-15.4,52,0.5C1068.1,806.3,1049.4,815.5,1020.5,789.9z"/>
	</g>
	<g>
		<path class="st1" d="M996.9,842.9c0,0,56.4-15.4,52,0.5C1044.4,859.3,1025.8,868.5,996.9,842.9z"/>
	</g>
	<g>
		<path class="st1" d="M1111.6,632.9c0,0,12.1-57.2-3.5-51.9C1092.5,586.3,1084.4,605.4,1111.6,632.9z"/>
	</g>
	<g>
		<path class="st1" d="M1085,671.1c0,0,12.1-57.2-3.5-51.9C1065.9,624.5,1057.8,643.6,1085,671.1z"/>
	</g>
	<g>
		<path class="st1" d="M1064.7,710.9c0,0,0.2-58.4-14-50.1C1036.6,669.2,1032.5,689.5,1064.7,710.9z"/>
	</g>
	<g>
		<path class="st1" d="M1038.6,751.2c0,0,0.2-58.4-14-50.1C1010.5,709.5,1006.4,729.8,1038.6,751.2z"/>
	</g>
	<g>
		<path class="st1" d="M1019.3,797.9c0,0,0.2-58.4-14-50.1C991.1,756.2,987,776.5,1019.3,797.9z"/>
	</g>
	<g>
		<path class="st1" d="M1002.6,847.3c0,0,0.2-58.4-14-50.1C974.5,805.6,970.4,825.9,1002.6,847.3z"/>
	</g>
</g>
<g>
	<g>
		<path class="st2" d="M564.5,1191.1c0,0-324.4-460.4-189.3-520c135.1-59.6,255.1,502.4,255.1,502.4S603.9,1215.9,564.5,1191.1z"/>
	</g>
	<g>
		<path class="st1" d="M593,1166.5c-1,0-1.9-0.5-2.3-1.5l-201-448c-0.6-1.3,0-2.7,1.3-3.3c1.3-0.6,2.7,0,3.3,1.3l201,448
			c0.6,1.3,0,2.7-1.3,3.3C593.7,1166.4,593.3,1166.5,593,1166.5z"/>
	</g>
	<g>
		<path class="st1" d="M463.3,877.4c-0.5,0-1-0.2-1.5-0.5L375,813.5c-1.1-0.8-1.4-2.4-0.5-3.5c0.8-1.1,2.4-1.4,3.5-0.5l82.8,60.5
			l0.2-98.5c0-1.4,1.1-2.5,2.5-2.5c0,0,0,0,0,0c1.4,0,2.5,1.1,2.5,2.5l-0.2,103.4c0,0.9-0.5,1.8-1.4,2.2
			C464.1,877.3,463.7,877.4,463.3,877.4z"/>
	</g>
	<g>
		<path class="st1" d="M536.3,1038.4c-0.5,0-1-0.2-1.5-0.5L448,974.5c-1.1-0.8-1.4-2.4-0.5-3.5c0.8-1.1,2.4-1.4,3.5-0.5l82.8,60.5
			l0.2-98.5c0-1.4,1.1-2.5,2.5-2.5c0,0,0,0,0,0c1.4,0,2.5,1.1,2.5,2.5l-0.2,103.4c0,0.9-0.5,1.8-1.4,2.2
			C537.1,1038.3,536.7,1038.4,536.3,1038.4z"/>
	</g>
	<g>
		<path class="st1" d="M502.3,964.4c-0.5,0-1-0.2-1.5-0.5L414,900.5c-1.1-0.8-1.4-2.4-0.5-3.5c0.8-1.1,2.4-1.4,3.5-0.5l82.8,60.5
			l0.2-98.5c0-1.4,1.1-2.5,2.5-2.5c1.4,0,2.5,1.1,2.5,2.5l-0.2,103.4c0,0.9-0.5,1.8-1.4,2.2C503.1,964.3,502.7,964.4,502.3,964.4z"
			/>
	</g>
</g>
<g>
	<g>
		<path class="st2" d="M541.2,1216.3c0,0-325-233.1-248.3-304.6s288.3,277.5,288.3,277.5S573.4,1223.7,541.2,1216.3z"/>
	</g>
	<g>
		<path class="st1" d="M554,1193.2c-0.5,0-0.9-0.2-1.3-0.6L313.3,939c-0.7-0.7-0.6-1.8,0.1-2.5c0.7-0.7,1.8-0.6,2.5,0.1l239.4,253.6
			c0.7,0.7,0.6,1.8-0.1,2.5C554.9,1193,554.4,1193.2,554,1193.2z"/>
	</g>
	<g>
		<path class="st1" d="M399.5,1029.5c-0.2,0-0.3,0-0.5-0.1l-73-22.3c-0.9-0.3-1.5-1.3-1.2-2.2c0.3-0.9,1.3-1.5,2.2-1.2l69.7,21.2
			L373.9,959c-0.3-0.9,0.2-1.9,1.1-2.3c0.9-0.3,1.9,0.2,2.3,1.1l24,69.4c0.2,0.6,0.1,1.3-0.4,1.8
			C400.5,1029.4,400,1029.5,399.5,1029.5z"/>
	</g>
	<g>
		<path class="st1" d="M486.1,1120.5c-0.2,0-0.3,0-0.5-0.1l-73-22.3c-0.9-0.3-1.5-1.3-1.2-2.2c0.3-0.9,1.3-1.5,2.2-1.2l69.7,21.2
			l-22.8-66.1c-0.3-0.9,0.2-1.9,1.1-2.3c0.9-0.3,1.9,0.2,2.3,1.1l24,69.4c0.2,0.6,0.1,1.3-0.4,1.8
			C487,1120.3,486.5,1120.5,486.1,1120.5z"/>
	</g>
	<g>
		<path class="st1" d="M446,1078.8c-0.2,0-0.3,0-0.5-0.1l-73-22.3c-0.9-0.3-1.5-1.3-1.2-2.2c0.3-0.9,1.3-1.5,2.2-1.2l69.7,21.2
			l-22.8-66.1c-0.3-0.9,0.2-1.9,1.1-2.3c0.9-0.3,1.9,0.2,2.3,1.1l24,69.4c0.2,0.6,0.1,1.3-0.4,1.8
			C446.9,1078.6,446.5,1078.8,446,1078.8z"/>
	</g>
</g>
<g>
	<g>
		<g>
			<g>
				<path class="st1" d="M756.9,519.8c0,0-0.1,0-0.1,0c-1-0.1-1.8-1-1.7-2c4.6-58.8,34.9-115.9,59.5-153.5
					c26.6-40.6,52.5-67.7,52.8-68c0.7-0.7,1.9-0.7,2.6-0.1c0.7,0.7,0.7,1.8,0.1,2.6c-0.3,0.3-25.9,27.2-52.4,67.5
					c-24.3,37.2-54.3,93.6-58.9,151.7C758.7,519.1,757.9,519.8,756.9,519.8z"/>
			</g>
		</g>
		<g>
			<path class="st1" d="M867.5,299.4c0,0,32.2-13.8,24.2-20.4C883.8,272.4,871.6,274.8,867.5,299.4z"/>
		</g>
		<g>
			<path class="st1" d="M854.5,311.8c0,0,18.2-35.1,7-34.4C850.4,278.1,841.7,289,854.5,311.8z"/>
		</g>
		<g>
			<path class="st1" d="M858.6,310.8c0,0,38.1-10.4,35.1,0.4C890.8,321.8,878.2,328.1,858.6,310.8z"/>
		</g>
		<g>
			<path class="st1" d="M840,333c0,0,38.1-10.4,35.1,0.4C872.1,344.1,859.6,350.3,840,333z"/>
		</g>
		<g>
			<path class="st1" d="M820.3,357.7c0,0,38.1-10.4,35.1,0.4C852.5,368.8,839.9,375,820.3,357.7z"/>
		</g>
		<g>
			<path class="st1" d="M804.3,381.6c0,0,38.1-10.4,35.1,0.4C836.4,392.7,823.9,398.9,804.3,381.6z"/>
		</g>
		<g>
			<path class="st1" d="M788.5,410.7c0,0,38.1-10.4,35.1,0.4C820.6,421.8,808.1,428,788.5,410.7z"/>
		</g>
		<g>
			<path class="st1" d="M776.3,439.1c0,0,38.1-10.4,35.1,0.4C808.4,450.2,795.8,456.4,776.3,439.1z"/>
		</g>
		<g>
			<path class="st1" d="M760.3,475c0,0,38.1-10.4,35.1,0.4C792.5,486.1,779.9,492.3,760.3,475z"/>
		</g>
		<g>
			<path class="st1" d="M837.8,333c0,0,8.2-38.6-2.4-35.1C824.9,301.5,819.4,314.4,837.8,333z"/>
		</g>
		<g>
			<path class="st1" d="M819.9,358.8c0,0,8.2-38.6-2.4-35.1C807,327.3,801.5,340.3,819.9,358.8z"/>
		</g>
		<g>
			<path class="st1" d="M806.2,385.7c0,0,0.2-39.5-9.4-33.8S784.4,371.3,806.2,385.7z"/>
		</g>
		<g>
			<path class="st1" d="M788.5,413c0,0,0.2-39.5-9.4-33.8S766.7,398.5,788.5,413z"/>
		</g>
		<g>
			<path class="st1" d="M775.4,444.5c0,0,0.2-39.5-9.4-33.8S753.7,430.1,775.4,444.5z"/>
		</g>
		<g>
			<path class="st1" d="M764.2,477.9c0,0,0.2-39.5-9.4-33.8C745.2,449.7,742.4,463.5,764.2,477.9z"/>
		</g>
	</g>
	<g>
		<g>
			<path class="st2" d="M814.1,557.8c0,0-164.5-220.9-81.7-259.7s121.4,246.7,121.4,246.7S835.8,568.4,814.1,557.8z"/>
		</g>
		<g>
			<path class="st1" d="M832.4,543.4c-0.5,0-1-0.3-1.3-0.8l-92.7-221.5c-0.3-0.7,0-1.5,0.7-1.8c0.7-0.3,1.5,0,1.8,0.7l92.7,221.5
				c0.3,0.7,0,1.5-0.7,1.8C832.7,543.4,832.5,543.4,832.4,543.4z"/>
		</g>
		<g>
			<path class="st1" d="M772.5,400.5c-0.2,0-0.5-0.1-0.7-0.2l-47.4-28c-0.7-0.4-0.9-1.2-0.5-1.9c0.4-0.7,1.2-0.9,1.9-0.5l45.6,26.9
				l5.8-51.7c0.1-0.8,0.8-1.3,1.5-1.2c0.8,0.1,1.3,0.8,1.2,1.5l-6,53.8c-0.1,0.5-0.3,0.9-0.8,1.1C773,400.4,772.7,400.5,772.5,400.5
				z"/>
		</g>
		<g>
			<path class="st1" d="M806.3,480c-0.2,0-0.5-0.1-0.7-0.2l-47.4-28c-0.7-0.4-0.9-1.2-0.5-1.9c0.4-0.7,1.2-0.9,1.9-0.5l45.6,26.9
				l5.8-51.7c0.1-0.8,0.8-1.3,1.5-1.2c0.8,0.1,1.3,0.8,1.2,1.5l-6,53.8c-0.1,0.5-0.3,0.9-0.8,1.1C806.7,480,806.5,480,806.3,480z"/>
		</g>
		<g>
			<path class="st1" d="M790.5,443.5c-0.2,0-0.5-0.1-0.7-0.2l-47.4-28c-0.7-0.4-0.9-1.2-0.5-1.9c0.4-0.7,1.2-0.9,1.9-0.5l45.6,26.9
				l5.8-51.7c0.1-0.8,0.8-1.3,1.5-1.2c0.8,0.1,1.3,0.8,1.2,1.5l-6,53.8c-0.1,0.5-0.3,0.9-0.8,1.1
				C790.9,443.4,790.7,443.5,790.5,443.5z"/>
		</g>
	</g>
	<g>
		<g>
			<path class="st2" d="M762.8,521.4c0,0,109.1-252.9,184.1-200.5s-153,228.4-153,228.4S764.4,545.5,762.8,521.4z"/>
		</g>
		<g>
			<path class="st1" d="M785.6,530.7c-0.3,0-0.6-0.1-0.8-0.3c-0.6-0.5-0.7-1.3-0.3-1.9l145.6-191c0.5-0.6,1.3-0.7,1.9-0.3
				c0.6,0.5,0.7,1.3,0.3,1.9l-145.6,191C786.4,530.5,786,530.7,785.6,530.7z"/>
		</g>
		<g>
			<path class="st1" d="M879.5,407.4c-0.3,0-0.5-0.1-0.8-0.2c-0.4-0.3-0.6-0.7-0.6-1.2l0.5-55.1c0-0.8,0.6-1.4,1.4-1.4c0,0,0,0,0,0
				c0.8,0,1.4,0.6,1.4,1.4l-0.5,52.9l47.7-20.8c0.7-0.3,1.5,0,1.8,0.7c0.3,0.7,0,1.5-0.7,1.8l-49.6,21.7
				C879.9,407.4,879.7,407.4,879.5,407.4z"/>
		</g>
		<g>
			<path class="st1" d="M827.5,476.4c-0.3,0-0.5-0.1-0.8-0.2c-0.4-0.3-0.6-0.7-0.6-1.2l0.5-55.1c0-0.8,0.6-1.4,1.4-1.4c0,0,0,0,0,0
				c0.8,0,1.4,0.6,1.4,1.4l-0.5,52.9l47.7-20.8c0.7-0.3,1.5,0,1.8,0.7c0.3,0.7,0,1.5-0.7,1.8L828,476.3
				C827.8,476.4,827.6,476.4,827.5,476.4z"/>
		</g>
		<g>
			<path class="st1" d="M851.2,444.5c-0.3,0-0.5-0.1-0.8-0.2c-0.4-0.3-0.6-0.7-0.6-1.2l0.5-55.1c0-0.8,0.6-1.4,1.4-1.4c0,0,0,0,0,0
				c0.8,0,1.4,0.6,1.4,1.4l-0.5,52.9l47.7-20.8c0.7-0.3,1.5,0,1.8,0.7c0.3,0.7,0,1.5-0.7,1.8l-49.6,21.7
				C851.6,444.5,851.4,444.5,851.2,444.5z"/>
		</g>
	</g>
</g>
<g>
	<g>
		<g>
			<path class="st1" d="M1000.2,1249.3c-0.2,0-0.4,0-0.6-0.1c-0.4-0.1-35.6-11.9-83.4-18.7c-44-6.3-107.8-9.4-162.3,11.1
				c-0.9,0.4-2-0.1-2.3-1.1c-0.4-0.9,0.1-2,1.1-2.3c55.2-20.8,119.8-17.6,164.2-11.3c48.1,6.8,83.6,18.8,84,18.9
				c1,0.3,1.5,1.4,1.1,2.3C1001.7,1248.8,1001,1249.3,1000.2,1249.3z"/>
		</g>
		<g>
			<path class="st1" d="M998.2,1247.1c0,0,26.1,23.3,28.7,13.3S1022.2,1240.4,998.2,1247.1z"/>
		</g>
		<g>
			<path class="st1" d="M981.4,1240.6c0,0,39.5,1.5,34.2-8.2S996.6,1219.3,981.4,1240.6z"/>
		</g>
		<g>
			<path class="st1" d="M984.1,1243.9c0,0,25.6,30.1,14.6,32S976.8,1269,984.1,1243.9z"/>
		</g>
		<g>
			<path class="st1" d="M956,1236.5c0,0,25.6,30.1,14.6,32S948.7,1261.5,956,1236.5z"/>
		</g>
		<g>
			<path class="st1" d="M925.4,1229.2c0,0,25.6,30.1,14.6,32S918,1254.2,925.4,1229.2z"/>
		</g>
		<g>
			<path class="st1" d="M896.9,1224.8c0,0,25.6,30.1,14.6,32C900.5,1258.6,889.5,1249.9,896.9,1224.8z"/>
		</g>
		<g>
			<path class="st1" d="M863.8,1222.9c0,0,25.6,30.1,14.6,32S856.4,1247.9,863.8,1222.9z"/>
		</g>
		<g>
			<path class="st1" d="M832.9,1223.9c0,0,25.6,30.1,14.6,32C836.5,1257.7,825.5,1248.9,832.9,1223.9z"/>
		</g>
		<g>
			<path class="st1" d="M793.7,1224.6c0,0,25.6,30.1,14.6,32S786.3,1249.7,793.7,1224.6z"/>
		</g>
		<g>
			<path class="st1" d="M955.1,1234.5c0,0,38.5-9,30.7-17C978.1,1209.5,964.1,1210,955.1,1234.5z"/>
		</g>
		<g>
			<path class="st1" d="M924.1,1229.3c0,0,38.5-9,30.7-17C947.2,1204.2,933.1,1204.7,924.1,1229.3z"/>
		</g>
		<g>
			<path class="st1" d="M894,1228.3c0,0,35.8-16.6,26.6-22.9S897.8,1202.4,894,1228.3z"/>
		</g>
		<g>
			<path class="st1" d="M861.8,1223.8c0,0,35.8-16.6,26.6-22.9C879.2,1194.6,865.6,1198,861.8,1223.8z"/>
		</g>
		<g>
			<path class="st1" d="M827.7,1225.4c0,0,35.8-16.6,26.6-22.9C845.1,1196.2,831.5,1199.5,827.7,1225.4z"/>
		</g>
		<g>
			<path class="st1" d="M792.7,1229.4c0,0,35.8-16.6,26.6-22.9C810.1,1200.2,796.5,1203.6,792.7,1229.4z"/>
		</g>
	</g>
	<g>
		<g>
			<path class="st2" d="M741.5,1308.5c0,0,130.1-242.8,200.4-184.2s-171.8,214.7-171.8,214.7S741.1,1332.7,741.5,1308.5z"/>
		</g>
		<g>
			<path class="st1" d="M763.5,1319.7c-0.3,0-0.7-0.1-0.9-0.4c-0.6-0.5-0.6-1.4-0.1-1.9l161.2-178c0.5-0.6,1.4-0.6,1.9-0.1
				c0.6,0.5,0.6,1.4,0.1,1.9l-161.2,178C764.3,1319.6,763.9,1319.7,763.5,1319.7z"/>
		</g>
		<g>
			<path class="st1" d="M867.6,1204.9c-0.3,0-0.6-0.1-0.9-0.3c-0.4-0.3-0.6-0.7-0.5-1.2l5.2-54.8c0.1-0.8,0.8-1.3,1.5-1.2
				c0.8,0.1,1.3,0.7,1.2,1.5l-5,52.7l49.3-16.7c0.7-0.2,1.5,0.1,1.7,0.9c0.2,0.7-0.1,1.5-0.9,1.7l-51.3,17.4
				C867.9,1204.8,867.7,1204.9,867.6,1204.9z"/>
		</g>
		<g>
			<path class="st1" d="M809.9,1269.2c-0.3,0-0.6-0.1-0.9-0.3c-0.4-0.3-0.6-0.7-0.5-1.2l5.2-54.8c0.1-0.8,0.8-1.3,1.5-1.2
				c0.8,0.1,1.3,0.7,1.2,1.5l-5,52.7l49.3-16.7c0.7-0.2,1.5,0.1,1.7,0.9c0.2,0.7-0.1,1.5-0.9,1.7l-51.3,17.4
				C810.2,1269.2,810,1269.2,809.9,1269.2z"/>
		</g>
		<g>
			<path class="st1" d="M836.3,1239.4c-0.3,0-0.6-0.1-0.9-0.3c-0.4-0.3-0.6-0.7-0.5-1.2l5.2-54.8c0.1-0.8,0.8-1.3,1.5-1.2
				c0.8,0.1,1.3,0.7,1.2,1.5l-5,52.7l49.3-16.7c0.7-0.2,1.5,0.1,1.7,0.9c0.2,0.7-0.1,1.5-0.9,1.7l-51.3,17.4
				C836.6,1239.4,836.4,1239.4,836.3,1239.4z"/>
		</g>
	</g>
	<g>
		<g>
			<path class="st2" d="M752.7,1246.6c0,0,275.3-8.7,259.7,81.5c-15.6,90.2-271.8-41.5-271.8-41.5S731.6,1258.3,752.7,1246.6z"/>
		</g>
		<g>
			<path class="st1" d="M989.9,1322.6c-0.1,0-0.2,0-0.3,0l-234.7-50.7c-0.7-0.2-1.2-0.9-1.1-1.6c0.2-0.7,0.9-1.2,1.6-1.1l234.7,50.7
				c0.7,0.2,1.2,0.9,1.1,1.6C991.1,1322.2,990.6,1322.6,989.9,1322.6z"/>
		</g>
		<g>
			<path class="st1" d="M947.4,1340.4c-0.3,0-0.6-0.1-0.9-0.3l-40.7-35.7c-0.4-0.3-0.5-0.8-0.5-1.2c0.1-0.5,0.4-0.9,0.8-1.1
				l50.1-22.9c0.7-0.3,1.5,0,1.8,0.7c0.3,0.7,0,1.5-0.7,1.8l-48.1,22l39.1,34.3c0.6,0.5,0.6,1.4,0.1,1.9
				C948.1,1340.2,947.8,1340.4,947.4,1340.4z"/>
		</g>
		<g>
			<path class="st1" d="M862.8,1322.5c-0.3,0-0.6-0.1-0.9-0.3l-40.7-35.7c-0.4-0.3-0.5-0.8-0.5-1.2c0.1-0.5,0.4-0.9,0.8-1.1
				l50.1-22.9c0.7-0.3,1.5,0,1.8,0.7c0.3,0.7,0,1.5-0.7,1.8l-48.1,22l39.1,34.3c0.6,0.5,0.6,1.4,0.1,1.9
				C863.6,1322.4,863.2,1322.5,862.8,1322.5z"/>
		</g>
		<g>
			<path class="st1" d="M901.8,1330.5c-0.3,0-0.6-0.1-0.9-0.3l-40.7-35.7c-0.4-0.3-0.5-0.8-0.5-1.2c0.1-0.5,0.4-0.9,0.8-1.1
				l50.1-22.9c0.7-0.3,1.5,0,1.8,0.7c0.3,0.7,0,1.5-0.7,1.8l-48.1,22l39.1,34.3c0.6,0.5,0.6,1.4,0.1,1.9
				C902.6,1330.3,902.2,1330.5,901.8,1330.5z"/>
		</g>
	</g>
</g>
<g>
	<g>
		<path class="st2" d="M803.7,1246.3c0,0,225-175.8,258.6-108.9c33.6,66.9-248,141.8-248,141.8S792.1,1266.9,803.7,1246.3z"/>
	</g>
	<g>
		<path class="st1" d="M818.1,1261.3c-0.5,0-0.9-0.3-1.1-0.7c-0.3-0.6-0.1-1.4,0.6-1.7l221.8-113c0.6-0.3,1.4-0.1,1.7,0.6
			c0.3,0.6,0.1,1.4-0.6,1.7l-221.8,113C818.5,1261.3,818.3,1261.3,818.1,1261.3z"/>
	</g>
	<g>
		<path class="st1" d="M961.3,1188.4c-0.5,0-0.9-0.2-1.1-0.6c-0.2-0.4-0.2-0.9,0-1.3l29.9-45.5c0.4-0.6,1.2-0.7,1.8-0.4
			c0.6,0.4,0.7,1.2,0.4,1.8l-28.5,43.5l49.9-2.4c0.7,0,1.3,0.5,1.3,1.2s-0.5,1.3-1.2,1.3L961.3,1188.4
			C961.3,1188.4,961.3,1188.4,961.3,1188.4z"/>
	</g>
	<g>
		<path class="st1" d="M881.6,1229.4c-0.5,0-0.9-0.2-1.1-0.6c-0.2-0.4-0.2-0.9,0-1.3l29.9-45.5c0.4-0.6,1.2-0.7,1.8-0.4
			c0.6,0.4,0.7,1.2,0.4,1.8l-28.5,43.5l49.9-2.4c0.7,0,1.3,0.5,1.3,1.2c0,0.7-0.5,1.3-1.2,1.3L881.6,1229.4
			C881.6,1229.4,881.6,1229.4,881.6,1229.4z"/>
	</g>
	<g>
		<path class="st1" d="M918.2,1210.3c-0.5,0-0.9-0.2-1.1-0.6c-0.2-0.4-0.2-0.9,0-1.3l29.9-45.5c0.4-0.6,1.2-0.7,1.8-0.4
			c0.6,0.4,0.7,1.2,0.4,1.8l-28.5,43.5l49.9-2.4c0.7,0,1.3,0.5,1.3,1.2c0,0.7-0.5,1.3-1.2,1.3L918.2,1210.3
			C918.2,1210.3,918.2,1210.3,918.2,1210.3z"/>
	</g>
</g>
<g>
	<g>
		<path class="st2" d="M946.7,719.1c0,0,110.2-314.3,185.3-269.7c75.1,44.6-154.3,295.4-154.3,295.4S948.3,746.5,946.7,719.1z"/>
	</g>
	<g>
		<path class="st1" d="M969.5,724.9c-0.3,0-0.5-0.1-0.7-0.2c-0.7-0.4-0.9-1.3-0.5-2L1114.9,472c0.4-0.7,1.3-0.9,2-0.5
			c0.7,0.4,0.9,1.3,0.5,2L970.8,724.2C970.5,724.7,970,724.9,969.5,724.9z"/>
	</g>
	<g>
		<path class="st1" d="M1064.2,563.2c-0.2,0-0.5-0.1-0.7-0.2c-0.5-0.3-0.8-0.8-0.8-1.3l0.7-63.6c0-0.8,0.7-1.5,1.5-1.5c0,0,0,0,0,0
			c0.8,0,1.5,0.7,1.5,1.5l-0.7,60.6l47.5-33.7c0.7-0.5,1.6-0.3,2.1,0.3c0.5,0.7,0.3,1.6-0.3,2.1l-49.8,35.4
			C1064.8,563.1,1064.5,563.2,1064.2,563.2z"/>
	</g>
	<g>
		<path class="st1" d="M1011.7,653.6c-0.2,0-0.5-0.1-0.7-0.2c-0.5-0.3-0.8-0.8-0.8-1.3l0.7-63.6c0-0.8,0.7-1.5,1.5-1.5c0,0,0,0,0,0
			c0.8,0,1.5,0.7,1.5,1.5l-0.7,60.6l47.5-33.7c0.7-0.5,1.6-0.3,2.1,0.3c0.5,0.7,0.3,1.6-0.3,2.1l-49.8,35.4
			C1012.3,653.5,1012,653.6,1011.7,653.6z"/>
	</g>
	<g>
		<path class="st1" d="M1035.7,611.8c-0.2,0-0.5-0.1-0.7-0.2c-0.5-0.3-0.8-0.8-0.8-1.3l0.7-63.6c0-0.8,0.7-1.5,1.5-1.5c0,0,0,0,0,0
			c0.8,0,1.5,0.7,1.5,1.5l-0.7,60.6l47.5-33.7c0.7-0.5,1.6-0.3,2.1,0.3c0.5,0.7,0.3,1.6-0.3,2.1l-49.8,35.4
			C1036.3,611.7,1036,611.8,1035.7,611.8z"/>
	</g>
</g>
<g>
	<path class="st3" d="M950.8,1403.8l-481.4-52.6c-14.3-1.6-24.6-14.4-23-28.7l102.6-939.4c1.6-14.3,14.4-24.6,28.7-23l481.4,52.6
		c14.3,1.6,24.6,14.4,23,28.7l-102.6,939.4C977.9,1395,965.1,1405.3,950.8,1403.8z"/>
</g>
<g>
	
		<rect x="520.5" y="478" transform="matrix(0.9941 0.1085 -0.1085 0.9941 98.2218 -78.0752)" class="st4" width="491.4" height="770.2"/>
</g>
<linearGradient id="SVGID_1_" gradientUnits="userSpaceOnUse" x1="627.157" y1="851.9473" x2="925.3889" y2="851.9473" gradientTransform="matrix(0.9941 0.1085 -0.1085 0.9941 85.6247 -74.9511)">
	<stop  offset="0" style="stop-color:#FEBC85"/>
	<stop  offset="1" style="stop-color:#FF7A80"/>
</linearGradient>
<path class="st5" d="M744.7,971.9L650,873.2c-85.3-107.4,38.5-205.6,123.8-98.3c107.6-85.5,205.9,38.3,98.3,123.8l-114.6,74.6
	C753.5,976,748.1,975.4,744.7,971.9z"/>
<g>
	<g>
		<path class="st4" d="M685.1,813.1c-0.2,1.3-0.6,2.5-1.2,3.5c-0.6,1-1.4,1.7-2.4,2.3c-1.1,0.7-2.3,1.1-3.6,1.3
			c-1.2,0.2-2.8,0.2-4.7,0l-8-0.9l3.1-27.1l7.4,0.8c2,0.2,3.5,0.5,4.4,0.7c1,0.2,1.9,0.6,2.8,1.2c0.9,0.6,1.6,1.4,2,2.3
			s0.5,1.9,0.4,3c-0.1,1.3-0.6,2.4-1.4,3.3s-1.9,1.6-3.1,2l0,0.1c1.6,0.6,2.8,1.6,3.6,2.8C685,809.8,685.3,811.3,685.1,813.1z
			 M681.3,812.8c0.1-1,0.1-1.9-0.2-2.6c-0.2-0.7-0.8-1.3-1.6-1.9c-0.6-0.4-1.2-0.6-1.9-0.8s-1.7-0.3-2.9-0.5l-4.2-0.5l-1.1,10l3,0.3
			c1.6,0.2,2.9,0.3,3.9,0.2c1,0,1.8-0.3,2.6-0.6c0.8-0.4,1.3-0.9,1.7-1.4C680.9,814.5,681.2,813.7,681.3,812.8z M681.4,800.3
			c0.1-0.7,0-1.2-0.1-1.7c-0.2-0.5-0.5-0.9-1-1.3c-0.6-0.4-1.2-0.7-1.9-0.8c-0.7-0.2-1.7-0.3-3-0.5l-3.6-0.4l-0.9,7.9l4.2,0.5
			c1.2,0.1,2,0.2,2.6,0.1c0.6-0.1,1.2-0.2,1.8-0.5c0.6-0.3,1.1-0.7,1.4-1.2S681.3,801.2,681.4,800.3z"/>
		<path class="st4" d="M710.3,800.1c0.9,1.3,1.6,2.9,2,4.7c0.4,1.8,0.5,3.9,0.2,6.1c-0.3,2.2-0.8,4.1-1.5,5.8
			c-0.8,1.7-1.8,3.1-3,4.2c-1.3,1.1-2.7,1.9-4.3,2.3c-1.6,0.4-3.3,0.5-5.1,0.3c-1.9-0.2-3.5-0.7-5-1.5c-1.4-0.8-2.6-1.9-3.6-3.2
			c-0.9-1.3-1.6-2.9-2-4.7c-0.4-1.8-0.4-3.8-0.2-6.1c0.3-2.3,0.8-4.2,1.6-5.9c0.8-1.7,1.8-3,3-4.1c1.2-1.1,2.6-1.8,4.2-2.3
			c1.6-0.5,3.3-0.6,5.2-0.4c1.9,0.2,3.6,0.7,5,1.5C708.2,797.8,709.4,798.8,710.3,800.1z M708.6,810.5c0.2-1.8,0.2-3.4-0.1-4.8
			c-0.2-1.4-0.7-2.6-1.3-3.6c-0.6-1-1.4-1.8-2.4-2.4c-1-0.6-2.1-1-3.4-1.1c-1.3-0.2-2.5-0.1-3.6,0.3c-1.1,0.3-2,0.9-2.9,1.8
			c-0.8,0.8-1.5,1.9-2.1,3.3c-0.6,1.3-0.9,2.9-1.1,4.7c-0.4,3.5,0,6.4,1.4,8.4c1.3,2.1,3.3,3.2,5.9,3.5c2.6,0.3,4.7-0.4,6.5-2.1
			C707.1,816.7,708.2,814,708.6,810.5z"/>
		<path class="st4" d="M735.3,827.2l-3.7-0.4l2.7-23.9l-9.4-1.1c-0.2,1.4-0.4,2.7-0.6,4c-0.2,1.3-0.4,2.5-0.5,3.5
			c-0.4,2.5-0.8,4.6-1.2,6.3c-0.4,1.6-0.9,3-1.3,4.1c-0.5,1.1-1,1.9-1.5,2.5c-0.5,0.6-1.1,1.1-1.7,1.5c-0.6,0.4-1.3,0.7-1.9,0.9
			c-0.7,0.2-1.4,0.2-2.3,0.1c-0.3,0-0.5-0.1-0.8-0.1c-0.3,0-0.5-0.1-0.6-0.1l0.4-3.5l0.3,0c0.1,0,0.2,0.1,0.3,0.1
			c0.1,0,0.2,0,0.4,0.1c0.4,0.1,0.9,0,1.3-0.1c0.4-0.1,0.8-0.3,1.1-0.5c0.9-0.7,1.7-2.1,2.4-4.1c0.6-2,1.2-4.8,1.8-8.3
			c0.2-1.2,0.4-2.7,0.7-4.7c0.3-1.9,0.5-3.7,0.8-5.4l16.6,1.9L735.3,827.2z"/>
		<path class="st4" d="M763.4,806.2c0.9,1.3,1.6,2.9,2,4.7c0.4,1.8,0.5,3.9,0.2,6.1c-0.3,2.2-0.8,4.1-1.5,5.8
			c-0.8,1.7-1.8,3.1-3,4.2c-1.3,1.1-2.7,1.9-4.3,2.3c-1.6,0.4-3.3,0.5-5.1,0.3c-1.9-0.2-3.5-0.7-5-1.5c-1.4-0.8-2.6-1.9-3.6-3.2
			c-0.9-1.3-1.6-2.9-2-4.7c-0.4-1.8-0.4-3.8-0.2-6.1c0.3-2.3,0.8-4.2,1.6-5.9c0.8-1.7,1.8-3,3-4.1c1.2-1.1,2.6-1.8,4.2-2.3
			c1.6-0.5,3.3-0.6,5.2-0.4c1.9,0.2,3.6,0.7,5,1.5C761.3,803.8,762.5,804.9,763.4,806.2z M761.7,816.5c0.2-1.8,0.2-3.4-0.1-4.8
			c-0.2-1.4-0.7-2.6-1.3-3.6c-0.6-1-1.4-1.8-2.4-2.4c-1-0.6-2.1-1-3.4-1.1c-1.3-0.2-2.5-0.1-3.6,0.3c-1.1,0.3-2,0.9-2.9,1.8
			c-0.8,0.8-1.5,1.9-2.1,3.3c-0.6,1.3-0.9,2.9-1.1,4.7c-0.4,3.5,0.1,6.4,1.4,8.4c1.3,2.1,3.3,3.2,5.9,3.5c2.6,0.3,4.7-0.4,6.5-2.1
			C760.2,822.7,761.3,820.1,761.7,816.5z"/>
		<path class="st4" d="M788.3,833.3l-3.7-0.4l1.5-13.2l-12.8-1.5l-1.5,13.2l-3.7-0.4l3.1-27.1l3.7,0.4l-1.2,10.6l12.8,1.5l1.2-10.6
			l3.7,0.4L788.3,833.3z"/>
		<path class="st4" d="M800.5,834.7l2.7-23.9l-9.4-1.1l0.4-3.2l22.4,2.6l-0.4,3.2l-9.4-1.1l-2.7,23.9L800.5,834.7z"/>
		<path class="st4" d="M816.3,836.5l3.1-27.1l17.4,2l-0.4,3.2l-13.7-1.6l-0.8,7.4l12.8,1.5l-0.4,3.2l-12.8-1.5l-1.1,10l13.7,1.6
			l-0.4,3.2L816.3,836.5z"/>
		<path class="st4" d="M857.6,822.1c-0.1,1.2-0.5,2.3-1,3.3c-0.5,1-1.2,1.8-2.1,2.5c-1.1,0.8-2.3,1.4-3.6,1.7c-1.4,0.3-3,0.4-5,0.1
			l-3.1-0.4l-1.2,10.1l-3.7-0.4l3.1-27.1l7,0.8c1.6,0.2,3,0.5,4.2,0.9c1.1,0.4,2.1,0.9,2.9,1.6c1,0.8,1.7,1.8,2.1,2.9
			C857.6,819.3,857.8,820.6,857.6,822.1z M853.7,821.7c0.1-0.9,0-1.8-0.2-2.5c-0.3-0.7-0.7-1.3-1.3-1.9c-0.5-0.4-1.2-0.8-2-1
			c-0.8-0.2-1.7-0.4-2.9-0.6l-3.1-0.4l-1.2,10.8l2.5,0.3c1.5,0.2,2.7,0.2,3.7,0.1c0.9-0.1,1.8-0.5,2.4-1c0.6-0.5,1.1-1,1.4-1.6
			C853.4,823.3,853.6,822.6,853.7,821.7z"/>
		<path class="st4" d="M878.3,835.1c-0.1,1.3-0.5,2.5-1.2,3.5c-0.6,1-1.5,1.8-2.4,2.4c-1.1,0.7-2.3,1.1-3.6,1.3
			c-1.2,0.2-2.8,0.2-4.7,0l-7.5-0.9l3.1-27.1l3.7,0.4l-1.2,10.6l3.9,0.4c1.9,0.2,3.4,0.5,4.6,0.8c1.2,0.3,2.2,1,3.2,1.9
			c0.9,0.8,1.5,1.8,1.8,2.9C878.4,832.5,878.5,833.8,878.3,835.1z M874.4,834.7c0.1-0.9,0-1.7-0.2-2.5c-0.2-0.7-0.6-1.3-1.3-1.8
			c-0.6-0.5-1.4-0.9-2.3-1.1c-0.9-0.2-2.1-0.4-3.8-0.6l-2.7-0.3l-1.2,10.3l2.6,0.3c1.7,0.2,2.9,0.3,3.9,0.2c0.9-0.1,1.7-0.3,2.5-0.6
			c0.8-0.4,1.3-0.9,1.7-1.5C874.1,836.5,874.3,835.7,874.4,834.7z M883.5,844.2l-3.7-0.4l3.1-27.1l3.7,0.4L883.5,844.2z"/>
	</g>
	<g>
		<path class="st4" d="M696.9,868.7c-0.2,1.3-0.5,2.5-1.2,3.5c-0.6,1-1.4,1.7-2.3,2.3c-1.1,0.7-2.3,1.1-3.5,1.3
			c-1.2,0.2-2.7,0.2-4.6,0l-7.8-0.9l3.1-27.1l7.2,0.8c1.9,0.2,3.4,0.4,4.3,0.7s1.8,0.6,2.7,1.2c0.9,0.6,1.5,1.4,1.9,2.3
			c0.4,0.9,0.5,1.9,0.3,3c-0.1,1.3-0.6,2.4-1.4,3.3c-0.8,0.9-1.8,1.6-3.1,2l0,0.1c1.6,0.6,2.7,1.6,3.5,2.8
			C696.8,865.5,697,867,696.9,868.7z M693.1,868.4c0.1-1,0.1-1.9-0.1-2.6c-0.2-0.7-0.7-1.3-1.6-1.9c-0.5-0.4-1.1-0.6-1.8-0.8
			c-0.7-0.2-1.6-0.3-2.8-0.5l-4.1-0.5l-1.1,10l2.9,0.3c1.6,0.2,2.8,0.2,3.7,0.2s1.8-0.3,2.5-0.7c0.7-0.4,1.3-0.9,1.7-1.4
			C692.7,870.1,693,869.4,693.1,868.4z M693.2,856c0.1-0.7,0-1.2-0.1-1.7s-0.5-0.9-0.9-1.3c-0.5-0.4-1.2-0.7-1.9-0.8
			c-0.7-0.2-1.7-0.3-2.9-0.4l-3.5-0.4l-0.9,7.9l4.1,0.5c1.1,0.1,2,0.2,2.5,0.1c0.5-0.1,1.1-0.2,1.7-0.5c0.6-0.3,1-0.7,1.3-1.2
			C692.9,857.5,693.1,856.8,693.2,856z"/>
		<path class="st4" d="M715.5,879.2l-4.3-0.5l-5.9-10.2l-1.7-0.2l-1.1,9.4l-3.4-0.4l2.3-20.3l3.4,0.4l-1,8.8c0.9,0.1,1.7,0,2.3-0.3
			s1.3-0.9,1.8-1.9c0.2-0.3,0.4-0.6,0.6-1c0.2-0.4,0.4-0.7,0.5-1c0.7-1.4,1.6-2.4,2.6-2.9c1-0.5,2.3-0.7,3.8-0.5l0.9,0.1l-0.3,2.9
			l-0.8-0.1c-1-0.1-1.7,0-2.2,0.3c-0.5,0.3-1,1-1.5,2c-0.5,1-1,1.8-1.5,2.3c-0.5,0.5-1.1,0.9-1.7,1.2L715.5,879.2z"/>
		<path class="st4" d="M735.6,871.3c-0.4,3.4-1.5,6-3.4,7.6c-1.9,1.7-4.2,2.3-6.9,2c-2.8-0.3-4.9-1.5-6.3-3.6
			c-1.4-2.1-1.9-4.8-1.5-8.1c0.4-3.4,1.5-5.9,3.4-7.6c1.9-1.7,4.2-2.4,6.9-2.1c2.7,0.3,4.8,1.5,6.3,3.6
			C735.5,865.1,736,867.9,735.6,871.3z M732.1,870.9c0.3-2.6,0-4.6-0.8-6s-2.1-2.2-3.9-2.4c-1.8-0.2-3.2,0.3-4.3,1.4
			c-1.1,1.2-1.8,3.1-2.1,5.7c-0.3,2.5,0,4.5,0.8,6s2.1,2.2,3.9,2.4c1.8,0.2,3.2-0.3,4.3-1.5C731.1,875.3,731.8,873.4,732.1,870.9z"
			/>
		<path class="st4" d="M754,883.6l-3.4-0.4l1-9.1l-9.2-1.1l-1,9.1l-3.4-0.4l2.3-20.3l3.4,0.4l-0.9,8.2l9.2,1.1l0.9-8.2l3.4,0.4
			L754,883.6z"/>
		<path class="st4" d="M775.7,868.6l-6.9-0.8l-2,17.3l-3.4-0.4l2-17.3l-6.9-0.8l0.3-3l17.2,2L775.7,868.6z"/>
		<path class="st4" d="M787.8,885.3c-0.3,0.2-0.7,0.4-1.2,0.7c-0.5,0.3-1,0.6-1.5,0.7c-0.6,0.2-1.3,0.4-1.8,0.5
			c-0.6,0.1-1.4,0.1-2.4,0c-0.8-0.1-1.6-0.3-2.3-0.7c-0.7-0.4-1.3-0.9-1.8-1.6c-0.5-0.6-0.8-1.4-1.1-2.2c-0.2-0.9-0.3-1.7-0.2-2.6
			c0.2-1.4,0.6-2.6,1.3-3.5c0.7-0.9,1.7-1.6,3.1-2c1.2-0.4,2.6-0.6,4.2-0.6c1.6,0,3.3,0,5.1,0.1l0.1-0.7c0.1-0.8,0-1.5-0.1-2
			s-0.5-0.9-0.9-1.3c-0.4-0.3-0.9-0.6-1.5-0.7c-0.6-0.2-1.3-0.3-1.9-0.4c-0.8-0.1-1.7-0.1-2.8,0c-1.1,0.1-2.2,0.3-3.3,0.7l-0.2,0
			l0.4-3.5c0.7-0.1,1.6-0.2,2.8-0.3c1.2-0.1,2.4-0.1,3.5,0.1c1.4,0.2,2.6,0.4,3.5,0.7c0.9,0.3,1.7,0.8,2.4,1.5
			c0.7,0.6,1.1,1.4,1.4,2.4s0.3,2,0.2,3.3l-1.6,13.9l-3.4-0.4L787.8,885.3z M788.2,882.5l0.6-5.6c-0.8,0-1.9,0-3.1-0.1
			c-1.3,0-2.3,0-3.1,0.2c-0.9,0.2-1.7,0.5-2.4,1c-0.7,0.5-1,1.3-1.2,2.3c-0.1,1.2,0.1,2.1,0.7,2.7c0.6,0.7,1.5,1.1,2.8,1.2
			c1.1,0.1,2.1,0,3-0.4C786.4,883.5,787.3,883.1,788.2,882.5z"/>
		<path class="st4" d="M812.1,890.3l-4.3-0.5l-5.9-10.2l-1.7-0.2l-1.1,9.4l-3.4-0.4l2.3-20.3l3.4,0.4l-1,8.8c0.9,0.1,1.7,0,2.3-0.3
			c0.7-0.3,1.3-0.9,1.8-1.9c0.2-0.3,0.4-0.6,0.6-1c0.2-0.4,0.4-0.7,0.5-1c0.7-1.4,1.6-2.4,2.6-2.9c1-0.5,2.3-0.7,3.8-0.5l0.9,0.1
			l-0.3,2.9l-0.8-0.1c-1-0.1-1.7,0-2.2,0.3c-0.5,0.3-1,1-1.5,2c-0.5,1-1,1.8-1.5,2.3s-1.1,0.9-1.7,1.2L812.1,890.3z"/>
		<path class="st4" d="M831.1,874.9l-6.9-0.8l-2,17.3l-3.4-0.4l2-17.3l-6.9-0.8l0.3-3l17.2,2L831.1,874.9z"/>
		<path class="st4" d="M840.4,894c-3.2-0.4-5.6-1.6-7.2-3.6c-1.6-2-2.2-4.7-1.8-8.1c0.4-3.3,1.5-5.8,3.5-7.6c2-1.8,4.3-2.5,7.1-2.2
			c1.3,0.1,2.4,0.5,3.3,0.9c0.9,0.5,1.7,1.1,2.3,2c0.6,0.9,1.1,1.9,1.3,3c0.3,1.2,0.3,2.6,0.1,4.2l-0.2,1.9l-14.1-1.6
			c-0.3,2.4,0.1,4.2,1.2,5.6s2.6,2.2,4.7,2.4c0.8,0.1,1.5,0.1,2.2,0c0.7-0.1,1.4-0.2,2-0.4c0.6-0.2,1.2-0.4,1.7-0.6
			c0.5-0.2,0.8-0.4,1.1-0.6l0.2,0l-0.4,3.7c-0.4,0.1-0.9,0.3-1.6,0.4c-0.6,0.2-1.2,0.3-1.7,0.4c-0.7,0.1-1.3,0.2-1.9,0.2
			C842,894.1,841.3,894.1,840.4,894z M845.9,881.6c0.1-0.9,0.1-1.7-0.1-2.4c-0.1-0.7-0.3-1.3-0.6-1.8c-0.3-0.6-0.8-1-1.4-1.3
			s-1.4-0.6-2.3-0.7c-0.9-0.1-1.7-0.1-2.4,0.1c-0.7,0.2-1.3,0.5-1.9,1c-0.6,0.5-1,1-1.4,1.6c-0.3,0.6-0.6,1.4-0.8,2.2L845.9,881.6z"
			/>
	</g>
</g>
<g>
	<circle class="st6" cx="715.1" cy="1315.1" r="43.7"/>
</g>
<g>
	<path class="st6" d="M855.1,454.6l-88.7-9.7c-1.4-0.2-2.5-1.5-2.3-2.9l1-8.8c0.2-1.4,1.5-2.5,2.9-2.3l88.7,9.7
		c1.4,0.2,2.5,1.5,2.3,2.9l-1,8.8C857.9,453.7,856.6,454.7,855.1,454.6z"/>
</g>
<g>
	<g>
		<path class="st7" d="M316.5,1382.6l4-15.6l22.4,3.8c0,0,43.9-11.5,50.6,10.6c5.4,17.7-48.7,13.3-70.4,10.8
			C318.5,1391.6,315.4,1387.1,316.5,1382.6z"/>
	</g>
	<g>
		<g>
			<path class="st8" d="M203.4,707.1c0,0-27.8-32.1-19.9-42.3c7.9-10.1,35.5,32.4,35.5,32.4s-2.5-20,2.5-17.5
				c5,2.5-2.5,32.6-2.5,32.6L203.4,707.1z"/>
		</g>
		<g>
			<path class="st8" d="M357.2,702.1c0,0,27.8-32.1,19.9-42.3c-7.9-10.1-35.5,32.4-35.5,32.4s2.5-20-2.5-17.5
				c-5,2.5,2.5,32.6,2.5,32.6L357.2,702.1z"/>
		</g>
	</g>
	<g>
		<path class="st7" d="M223.4,1385.1l-4-15.6l-22.4,3.8c0,0-43.9-11.5-50.6,10.6c-5.4,17.7,48.7,13.3,70.4,10.8
			C221.4,1394.2,224.6,1389.6,223.4,1385.1z"/>
	</g>
	<g>
		<g>
			<path class="st9" d="M283.3,1151.1l-58.3,221.2c-1.5,5.8-7.2,9.4-13.1,8.3l-29.7-5.6c-5.9-1.1-9.9-6.5-9.2-12.4l25.8-227.3
				c0.7-6.6,6.9-11.1,13.4-9.9l62.1,11.7C280.9,1138.3,285,1144.7,283.3,1151.1z"/>
		</g>
		<g>
			<path class="st9" d="M365.5,1131.1l-0.8,228.7c0,6-4.6,10.9-10.6,11.3l-30.2,2.1c-5.9,0.4-11.2-3.8-12-9.7l-32.1-226.5
				c-0.9-6.5,3.9-12.5,10.5-12.9l63.1-4.3C360,1119.2,365.5,1124.5,365.5,1131.1z"/>
		</g>
	</g>
	<g>
		<ellipse class="st8" cx="281.3" cy="877.7" rx="25.6" ry="37.5"/>
	</g>
	<g>
		<path class="st8" d="M292,945.2h-20.7c-1.2,0-2.2-1-2.2-2.2v-40.8c0-1.2,1-2.2,2.2-2.2H292c1.2,0,2.2,1,2.2,2.2v40.8
			C294.1,944.2,293.1,945.2,292,945.2z"/>
	</g>
	<g>
		<path class="st10" d="M262.4,871.2c0.4-5.8,5.4-10.2,11.2-10c16.1,0.7,45.3-0.7,48-19.1c3.7-25.6-73.1-22.5-67.6,33.5
			C258,917.1,261.1,888.7,262.4,871.2z"/>
	</g>
	<g>
		<path class="st11" d="M255.2,915.8c0,0,14.6,15.1,56.8,1s7.1,35.9,7.1,35.9S251.4,939,255.2,915.8z"/>
	</g>
	<g>
		<path class="st11" d="M362.6,700.4c0,0,0,0.9-0.1,2.6l-0.8-3.2h-22.5l12.8,116h0c-7.9,47.7-21.5,93-44.8,97.6
			c-8.4,1.6-13,5.6-14.8,11c-3.5-1.1-7.1-1.7-10.8-1.7c-3.2,0-6.3,0.5-9.4,1.3c-2.7-2.7-6.5-4.8-11.7-6.1
			c-46.9-12-42.7-182.3-42-203.9l0.5-1.7l-0.5-0.2c0-0.2,0-0.4,0-0.4c-0.1,0.1-0.1,0.2-0.2,0.3l-21.9-7.3l-16.3,118.7
			c-2,10.5-3.3,20.6-4.2,30.2l0,0.2l0,0c-6.7,78.5,22.4,125.3,39.9,145.9c-12.1,36.6-19.4,83.4-19.4,134.5c0,0,0,0.1,0,0.1
			c0,6.2,5.1,11.3,11.3,11.3h147.7c6.2,0,11.3-5,11.3-11.3c0,0,0-0.1,0-0.1c0-44.6-5.6-86-15.1-120.1
			C366.6,999.4,443.6,909.8,362.6,700.4z"/>
	</g>
</g>
<g>
	<g>
		<path class="st7" d="M1122.2,1388.5l-8.1-13.3l-19.7,9.8c0,0-43.8,1.7-43.9,24c0,17.9,48.8-1.4,68.2-9.7
			C1122.9,1397.4,1124.5,1392.4,1122.2,1388.5z"/>
	</g>
	<g>
		<path class="st7" d="M1226.2,1365.2l-13.3-8.2l-13.1,17.7c0,0-38.2,21.5-28.1,41.4c8.1,16,42.8-23.4,56.3-39.8
			C1230.9,1372.9,1230,1367.6,1226.2,1365.2z"/>
	</g>
	<g>
		<path class="st12" d="M1013.1,1110.5c0,0-26.6,49.2-37.5,36.3c-10.9-12.9,31.5-47.1,31.5-47.1L1013.1,1110.5z"/>
	</g>
	<g>
		<path class="st12" d="M973.8,1043.6c0,0-42.3,36.6-47.9,20.7s46.1-32.9,46.1-32.9L973.8,1043.6z"/>
	</g>
	<g>
		<path class="st13" d="M1135.1,939.1c-0.4,1-0.6,1.5-0.9,2.2l-0.8,1.8c-0.6,1.2-1.1,2.3-1.7,3.4c-1.1,2.3-2.3,4.4-3.4,6.6
			c-2.4,4.3-4.8,8.4-7.4,12.5c-5.2,8.1-10.7,15.8-16.9,23c-6.2,7.2-12.7,14-20,20c-1.7,1.6-3.7,2.9-5.6,4.4
			c-1.9,1.4-3.7,2.9-5.8,4.1l-6,3.8l-5.8,3.2c-7.8,4.2-15.6,8-23.5,11.4c-7.9,3.5-15.9,6.6-23.9,9.6c-16.1,5.9-32.1,11-48.8,15.4
			c-5.8,1.5-12.2-2.7-14.4-9.4c-2.1-6.2,0.2-12.4,5.1-14.5l0.2-0.1c14.8-6.4,29.7-13.7,43.9-21.5c7.1-4,14.2-8,21-12.3
			c6.8-4.3,13.4-8.8,19.7-13.5l4.6-3.6l4.1-3.6c1.4-1.1,2.7-2.5,4-3.8c1.3-1.4,2.6-2.5,3.8-4c5-5.5,9.5-11.8,13.7-18.3
			c4.2-6.5,7.9-13.6,11.2-20.8c1.7-3.6,3.2-7.3,4.7-11c0.7-1.9,1.4-3.7,2-5.6c0.3-0.9,0.6-1.8,0.9-2.7l0.4-1.3
			c0.1-0.4,0.3-0.9,0.3-1c-0.7-15.6,10.1-27,24.1-25.5c14,1.5,25.9,15.4,26.6,30.9c0.2,4.3-0.5,8.2-1.8,11.7L1135.1,939.1z"/>
	</g>
	<g>
		<path class="st14" d="M1157,1047.7l59.7,301c3,15.1-4.6,29.8-17,32.8c-12,3-24.1-6.1-27.6-20.4l-71.5-297.8
			c-4.5-18.8,4.3-38,19.8-42.7c15.4-4.8,31.6,6.6,36.1,25.4C1156.8,1046.5,1156.9,1047.2,1157,1047.7z"/>
	</g>
	<g>
		<path class="st15" d="M1166.9,1123.8l-44.8,240.7c-0.9,14.2-11.9,25.5-24.6,25c-12.3-0.4-21.8-11.7-21.5-25.3l5.3-284.7
			c0.3-18,13.7-32.9,29.8-33.2c16.1-0.3,56.1,25.4,55.8,43.4C1166.9,1090.3,1166.9,1123.3,1166.9,1123.8z"/>
	</g>
	<g>
		
			<ellipse transform="matrix(0.9879 -0.1552 0.1552 0.9879 -116.8309 178.9437)" class="st12" cx="1087.8" cy="837.9" rx="24.2" ry="36.6"/>
	</g>
	<g>
		<path class="st16" d="M1112.4,843.1c0-2.9-0.2-5.9-0.6-9c-3.1-20-16.4-34.5-29.6-32.4c-8.5,1.3-14.9,9.2-17.5,19.9
			C1064.9,822.1,1081.5,863.6,1112.4,843.1z"/>
	</g>
	<g>
		<path class="st17" d="M1080.8,1136.5c24.2-9.3,67-28.2,94.1-53.5c0.3-12.8,0-26.1-0.9-39.8c-0.7-10.7-1.8-21.5-3.4-32.5
			c-12.3-87.7-46.3-147.4-76.1-133.3c-29.7,14.1-43.9,96.6-31.6,184.3C1066.8,1090.1,1073.1,1115.6,1080.8,1136.5z"/>
	</g>
	<g>
		<path class="st18" d="M1143.2,939.6c-0.1,1.1-0.3,1.8-0.4,2.5l-0.4,2.1c-0.2,1.4-0.5,2.8-0.8,4.1c-0.5,2.7-1.1,5.3-1.7,7.9
			c-1.2,5.2-2.6,10.2-4,15.2c-3,10-6.4,19.8-10.5,29.2c-4.1,9.4-8.7,18.6-14.1,27.2c-1.3,2.2-2.8,4.3-4.2,6.4
			c-1.4,2.1-2.8,4.2-4.5,6.2l-4.7,6l-4.7,5.3c-6.3,7-12.7,13.5-19.3,19.8c-6.6,6.3-13.3,12.2-20.1,18
			c-13.7,11.6-27.5,22.4-42.1,32.7c-5,3.6-12,1.5-15.6-4.5c-3.3-5.6-2.6-12.7,1.5-16.5l0.2-0.2c12.4-11.7,24.6-24.3,36.1-37.2
			c5.7-6.5,11.4-13,16.7-19.8c5.4-6.7,10.6-13.6,15.3-20.6l3.5-5.3l3-5.1c1-1.6,1.9-3.5,2.8-5.3c0.9-1.8,1.9-3.5,2.6-5.4
			c3.4-7.4,6.2-15.3,8.6-23.4c2.4-8.1,4.3-16.5,5.7-25.1c0.7-4.3,1.3-8.6,1.8-12.8c0.2-2.1,0.5-4.3,0.6-6.4c0.1-1.1,0.2-2.1,0.2-3.1
			l0.1-1.5c0-0.5,0-1,0-1.1c-4.2-15.6,3.3-30.9,16.7-34.3c13.4-3.3,27.7,6.6,31.9,22.2c1.1,4.3,1.4,8.5,0.9,12.5L1143.2,939.6z"/>
	</g>
	<g>
		<path class="st12" d="M1073.1,854.3l8.7,35c0,0,17.5,17.5,35-5.8l-14.6-29.1C1102.3,854.3,1073.1,863,1073.1,854.3z"/>
	</g>
	<g>
		<ellipse class="st16" cx="1118.1" cy="800.7" rx="30.3" ry="33.9"/>
	</g>
</g>
<g>
	<circle class="st2" cx="376.5" cy="525.5" r="8.5"/>
</g>
<g>
	<circle class="st2" cx="377" cy="581" r="8"/>
</g>
<g>
	<circle class="st2" cx="1112" cy="415" r="8"/>
</g>
<g>
	<circle class="st2" cx="1067" cy="391" r="8"/>
</g>
<g>
	<circle class="st2" cx="330" cy="601" r="8"/>
</g>
<g>
	<circle class="st2" cx="482" cy="459" r="10"/>
</g>
<g>
	<circle class="st2" cx="1159.5" cy="716.5" r="16.5"/>
</g>
<g>
	<circle class="st2" cx="1116" cy="744" r="12"/>
</g>
</svg>
