<svg id="Layer_1" data-name="Layer 1" xmlns="http://www.w3.org/2000/svg" xmlns:xlink="http://www.w3.org/1999/xlink" viewBox="0 0 112 107"><defs><style>.cls-1{fill:url(#linear-gradient);}.cls-2{fill:url(#linear-gradient-2);}.cls-3{fill:url(#linear-gradient-3);}</style><linearGradient id="linear-gradient" x1="43.18" y1="33.85" x2="73.55" y2="74.52" gradientUnits="userSpaceOnUse"><stop offset="0" stop-color="#febc85"/><stop offset="1" stop-color="#ff7a80"/></linearGradient><linearGradient id="linear-gradient-2" x1="8.11" y1="64.75" x2="17.35" y2="77.13" xlink:href="#linear-gradient"/><linearGradient id="linear-gradient-3" x1="89.65" y1="67.08" x2="98.89" y2="79.46" xlink:href="#linear-gradient"/></defs><title>перенаправить</title><path class="cls-1" d="M90.79,61.59a2.48,2.48,0,0,0,.69-1.82l-.82-19a2.49,2.49,0,1,0-5,.22l.54,12.56C73.7,41.45,61,35.83,48.44,36.94,29.87,38.59,18.73,54.29,18.26,55a2.49,2.49,0,1,0,4.08,2.84c.1-.14,10.26-14.46,26.53-15.9C60,40.91,71.48,46.14,83,57.39H69.23a2.49,2.49,0,1,0,0,5H89A2.5,2.5,0,0,0,90.79,61.59Z"/><path class="cls-2" d="M12.73,63.21a7.73,7.73,0,1,0,7.73,7.73A7.74,7.74,0,0,0,12.73,63.21Zm0,10.49a2.76,2.76,0,1,1,2.75-2.76A2.77,2.77,0,0,1,12.73,73.7Z"/><path class="cls-3" d="M94.27,65.54A7.73,7.73,0,1,0,102,73.27,7.74,7.74,0,0,0,94.27,65.54Zm0,10.49A2.76,2.76,0,1,1,97,73.27,2.76,2.76,0,0,1,94.27,76Z"/></svg>