<svg id="Layer_1" data-name="Layer 1" xmlns="http://www.w3.org/2000/svg" xmlns:xlink="http://www.w3.org/1999/xlink" viewBox="0 0 112 107"><defs><style>.cls-1{fill:url(#linear-gradient);}.cls-2{fill:url(#linear-gradient-2);}.cls-3{fill:url(#linear-gradient-3);}.cls-4{fill:url(#linear-gradient-4);}</style><linearGradient id="linear-gradient" x1="13.12" y1="47.11" x2="100.15" y2="59.94" gradientUnits="userSpaceOnUse"><stop offset="0" stop-color="#febc85"/><stop offset="1" stop-color="#ff7a80"/></linearGradient><linearGradient id="linear-gradient-2" x1="28.19" y1="75.73" x2="44.54" y2="78.14" xlink:href="#linear-gradient"/><linearGradient id="linear-gradient-3" x1="74.56" y1="76.24" x2="84.03" y2="77.63" xlink:href="#linear-gradient"/><linearGradient id="linear-gradient-4" x1="54.04" y1="76.38" x2="61.62" y2="77.49" xlink:href="#linear-gradient"/></defs><title>плюшка волонтерам</title><path class="cls-1" d="M100.32,54.46a2.11,2.11,0,0,0-1.69-.84H94.75a3,3,0,0,0,0-.31c0-7.12-4.13-13.75-11.64-18.67A46.51,46.51,0,0,0,64,27.83a9,9,0,0,0-2.26-14c.76-1.68,4.75-4.72,9.13-6.8A2.12,2.12,0,0,0,69.07,3.2c-2.58,1.23-9.84,5-11.39,9.53h-.25A9,9,0,0,0,50.6,27.57a47.45,47.45,0,0,0-21.32,7.07c-7.5,4.92-11.63,11.55-11.63,18.67a1.55,1.55,0,0,0,0,.31H14a2.13,2.13,0,0,0-2,2.82l15.39,44.14a2.12,2.12,0,0,0,2,1.42H86.24a2.12,2.12,0,0,0,2-1.54l12.39-44.15A2.11,2.11,0,0,0,100.32,54.46ZM57.43,17a4.77,4.77,0,1,1-4.77,4.77A4.77,4.77,0,0,1,57.43,17ZM21.88,53.31c0-12,15.4-21.78,34.33-21.78S90.54,41.3,90.54,53.31a1.55,1.55,0,0,0,0,.31H21.85A3,3,0,0,0,21.88,53.31ZM84.64,97.77H30.88L17,57.86H95.84Z"/><path class="cls-2" d="M29.93,65.73l8.91,23.89a2.12,2.12,0,0,0,2,1.38,1.91,1.91,0,0,0,.74-.14,2.1,2.1,0,0,0,1.24-2.72L33.89,64.25a2.11,2.11,0,1,0-4,1.48Z"/><path class="cls-3" d="M74.1,90.86a1.91,1.91,0,0,0,.74.14,2.11,2.11,0,0,0,2-1.38l8.91-23.89a2.11,2.11,0,1,0-4-1.48L72.86,88.14A2.11,2.11,0,0,0,74.1,90.86Z"/><path class="cls-4" d="M57.83,90.8A2.12,2.12,0,0,0,60,88.68V65.19a2.12,2.12,0,0,0-4.24,0V88.68A2.12,2.12,0,0,0,57.83,90.8Z"/></svg>