<?xml version="1.0" encoding="utf-8"?>
<!-- Generator: Adobe Illustrator 22.1.0, SVG Export Plug-In . SVG Version: 6.00 Build 0)  -->
<svg version="1.1" id="Layer_1" xmlns="http://www.w3.org/2000/svg" xmlns:xlink="http://www.w3.org/1999/xlink" x="0px" y="0px"
	 viewBox="0 0 112 107" style="enable-background:new 0 0 112 107;" xml:space="preserve">
<style type="text/css">
	.st0{fill:url(#SVGID_1_);}
	.st1{fill:#FFEC40;}
	.st2{fill:none;stroke:url(#SVGID_2_);stroke-width:9;stroke-miterlimit:10;}
	.st3{fill:none;stroke:url(#SVGID_3_);stroke-width:9;stroke-linecap:round;stroke-miterlimit:10;}
	.st4{fill:none;stroke:url(#SVGID_4_);stroke-width:9;stroke-linecap:round;stroke-miterlimit:10;}
	.st5{fill:none;stroke:url(#SVGID_5_);stroke-width:9;stroke-linecap:round;stroke-linejoin:round;stroke-miterlimit:10;}
	.st6{fill:none;stroke:url(#SVGID_6_);stroke-width:9;stroke-linecap:round;stroke-linejoin:round;stroke-miterlimit:10;}
	.st7{fill:none;stroke:url(#SVGID_7_);stroke-width:9;stroke-linecap:round;stroke-linejoin:round;stroke-miterlimit:10;}
	.st8{fill:none;stroke:url(#SVGID_8_);stroke-width:9;stroke-linecap:round;stroke-linejoin:round;stroke-miterlimit:10;}
	.st9{fill:none;stroke:url(#SVGID_9_);stroke-width:9;stroke-linecap:round;stroke-linejoin:round;stroke-miterlimit:10;}
	.st10{fill:url(#SVGID_10_);}
	.st11{fill:#D3BD37;}
	.st12{fill:#EFD93A;}
	.st13{fill:url(#SVGID_11_);}
	.st14{fill:none;stroke:#EFC100;stroke-width:7;stroke-linecap:round;stroke-linejoin:round;stroke-miterlimit:10;}
	.st15{fill:none;stroke:url(#SVGID_12_);stroke-width:9;stroke-linecap:round;stroke-linejoin:round;stroke-miterlimit:10;}
	.st16{fill:none;stroke:url(#SVGID_13_);stroke-width:9;stroke-linecap:round;stroke-linejoin:round;stroke-miterlimit:10;}
	.st17{fill:none;stroke:url(#SVGID_14_);stroke-width:9;stroke-linecap:round;stroke-linejoin:round;stroke-miterlimit:10;}
	.st18{fill:url(#SVGID_15_);stroke:url(#SVGID_16_);stroke-width:9;stroke-linecap:round;stroke-miterlimit:10;}
	.st19{fill:url(#SVGID_17_);stroke:url(#SVGID_18_);stroke-width:9;stroke-linecap:round;stroke-miterlimit:10;}
	.st20{fill:url(#SVGID_19_);stroke:url(#SVGID_20_);stroke-width:9;stroke-linecap:round;stroke-miterlimit:10;}
	.st21{fill:none;stroke:url(#SVGID_21_);stroke-width:9;stroke-linecap:round;stroke-linejoin:round;stroke-miterlimit:10;}
	.st22{fill:none;stroke:url(#SVGID_22_);stroke-width:9;stroke-linecap:round;stroke-linejoin:round;stroke-miterlimit:10;}
	.st23{fill:none;stroke:url(#SVGID_23_);stroke-width:9;stroke-linecap:round;stroke-linejoin:round;stroke-miterlimit:10;}
	.st24{fill:url(#SVGID_24_);}
	.st25{fill:url(#SVGID_25_);}
	.st26{fill:url(#SVGID_26_);}
	.st27{fill:none;stroke:url(#SVGID_27_);stroke-width:9;stroke-linecap:round;stroke-linejoin:round;stroke-miterlimit:10;}
	.st28{fill:none;stroke:url(#SVGID_28_);stroke-width:9;stroke-linecap:round;stroke-miterlimit:10;}
	.st29{fill:none;stroke:url(#SVGID_29_);stroke-width:9;stroke-linecap:round;stroke-miterlimit:10;}
	.st30{fill:none;stroke:url(#SVGID_30_);stroke-width:9;stroke-linecap:round;stroke-miterlimit:10;}
	.st31{fill:none;stroke:url(#SVGID_31_);stroke-width:9;stroke-linecap:round;stroke-miterlimit:10;}
	.st32{fill:none;stroke:url(#SVGID_32_);stroke-width:9;stroke-linecap:round;stroke-miterlimit:10;}
	.st33{fill:none;stroke:url(#SVGID_33_);stroke-width:9;stroke-linecap:round;stroke-miterlimit:10;}
	.st34{fill:none;stroke:url(#SVGID_34_);stroke-width:9;stroke-linecap:round;stroke-linejoin:round;stroke-miterlimit:10;}
	.st35{fill:none;stroke:url(#SVGID_35_);stroke-width:9;stroke-linecap:round;stroke-linejoin:round;stroke-miterlimit:10;}
	.st36{fill:none;stroke:url(#SVGID_36_);stroke-width:9;stroke-linecap:round;stroke-linejoin:round;stroke-miterlimit:10;}
	.st37{fill:none;stroke:url(#SVGID_37_);stroke-width:9;stroke-linecap:round;stroke-linejoin:round;stroke-miterlimit:10;}
	.st38{fill:none;stroke:url(#SVGID_38_);stroke-width:9;stroke-linecap:round;stroke-miterlimit:10;}
	.st39{fill:none;stroke:url(#SVGID_39_);stroke-width:9;stroke-linecap:round;stroke-linejoin:round;stroke-miterlimit:10;}
	.st40{fill:none;stroke:url(#SVGID_40_);stroke-width:9;stroke-linecap:round;stroke-linejoin:round;stroke-miterlimit:10;}
	.st41{fill:none;stroke:url(#SVGID_41_);stroke-width:9;stroke-linecap:round;stroke-linejoin:round;stroke-miterlimit:10;}
	.st42{fill:none;stroke:url(#SVGID_42_);stroke-width:9;stroke-linecap:round;stroke-linejoin:round;stroke-miterlimit:10;}
	.st43{fill:none;stroke:url(#SVGID_43_);stroke-width:9;stroke-linecap:round;stroke-linejoin:round;stroke-miterlimit:10;}
	.st44{fill:url(#SVGID_44_);}
	.st45{fill:#FFFFFF;}
	.st46{fill:#FCF9E3;}
	.st47{fill:#D3B400;}
</style>
<g>
	<linearGradient id="SVGID_1_" gradientUnits="userSpaceOnUse" x1="22.6727" y1="50.204" x2="86.3426" y2="59.589">
		<stop  offset="0" style="stop-color:#FEBC85"/>
		<stop  offset="1" style="stop-color:#FF7A80"/>
	</linearGradient>
	<path class="st0" d="M76.4,20.4c-1.3-1.3-3.5-1.3-4.9,0L20.1,72.1c-0.6,0.6-1,1.5-1,2.4c0,0.9,0.4,1.8,1,2.4l12.4,12.4
		c0.7,0.7,1.5,1,2.4,1c0.9,0,1.8-0.3,2.4-1l51.4-51.7c1.3-1.3,1.3-3.5,0-4.9L76.4,20.4z M35,82.1l-7.6-7.5L74,27.7l7.6,7.5L35,82.1z
		"/>
	<linearGradient id="SVGID_2_" gradientUnits="userSpaceOnUse" x1="76.1298" y1="17.5845" x2="103.1904" y2="21.5733">
		<stop  offset="0" style="stop-color:#FEBC85"/>
		<stop  offset="1" style="stop-color:#FF7A80"/>
	</linearGradient>
	<path style="fill:url(#SVGID_2_);" d="M102.1,19.5L89.6,7.2c-1.3-1.3-3.5-1.3-4.9,0l-7.5,7.6c-1.3,1.3-1.3,3.5,0,4.9L89.7,32
		c0.6,0.6,1.5,1,2.4,1c0,0,0,0,0,0c0.9,0,1.8-0.4,2.4-1l7.5-7.6c0.6-0.6,1-1.5,1-2.4C103.1,21.1,102.7,20.2,102.1,19.5z M92.1,24.7
		l-7.6-7.5l2.7-2.7l7.6,7.5L92.1,24.7z"/>
	<linearGradient id="SVGID_3_" gradientUnits="userSpaceOnUse" x1="10.2111" y1="88.2046" x2="32.6772" y2="91.5161">
		<stop  offset="0" style="stop-color:#FEBC85"/>
		<stop  offset="1" style="stop-color:#FF7A80"/>
	</linearGradient>
	<path style="fill:url(#SVGID_3_);" d="M19.6,78.1c-0.9-0.9-2.1-1.2-3.3-0.9c-1.2,0.3-2.1,1.2-2.4,2.4L9,96.3
		c-0.3,1.2,0,2.5,0.9,3.4c0.7,0.7,1.5,1,2.4,1c0.3,0,0.6,0,1-0.1L30,95.6c1.2-0.3,2.1-1.3,2.4-2.5c0.3-1.2,0-2.4-0.9-3.3L19.6,78.1z
		 M17.4,92.2l1.5-5.2l3.7,3.7L17.4,92.2z"/>
</g>
</svg>
