<?xml version="1.0" encoding="utf-8"?>
<!-- Generator: Adobe Illustrator 22.1.0, SVG Export Plug-In . SVG Version: 6.00 Build 0)  -->
<svg version="1.1" id="Layer_1" xmlns="http://www.w3.org/2000/svg" xmlns:xlink="http://www.w3.org/1999/xlink" x="0px" y="0px"
	 viewBox="0 0 112 107" style="enable-background:new 0 0 112 107;" xml:space="preserve">
<style type="text/css">
	.st0{fill:url(#SVGID_1_);}
	.st1{fill:#FFEC40;}
	.st2{fill:none;stroke:url(#SVGID_2_);stroke-width:9;stroke-miterlimit:10;}
	.st3{fill:none;stroke:url(#SVGID_3_);stroke-width:9;stroke-linecap:round;stroke-miterlimit:10;}
	.st4{fill:none;stroke:url(#SVGID_4_);stroke-width:9;stroke-linecap:round;stroke-miterlimit:10;}
	.st5{fill:none;stroke:url(#SVGID_5_);stroke-width:9;stroke-linecap:round;stroke-linejoin:round;stroke-miterlimit:10;}
	.st6{fill:none;stroke:url(#SVGID_6_);stroke-width:9;stroke-linecap:round;stroke-linejoin:round;stroke-miterlimit:10;}
	.st7{fill:none;stroke:url(#SVGID_7_);stroke-width:9;stroke-linecap:round;stroke-linejoin:round;stroke-miterlimit:10;}
	.st8{fill:none;stroke:url(#SVGID_8_);stroke-width:9;stroke-linecap:round;stroke-linejoin:round;stroke-miterlimit:10;}
	.st9{fill:none;stroke:url(#SVGID_9_);stroke-width:9;stroke-linecap:round;stroke-linejoin:round;stroke-miterlimit:10;}
	.st10{fill:url(#SVGID_10_);}
	.st11{fill:url(#SVGID_11_);}
	.st12{fill:url(#SVGID_12_);}
	.st13{fill:url(#SVGID_13_);}
	.st14{fill:#D3BD37;}
	.st15{fill:#EFD93A;}
	.st16{fill:url(#SVGID_14_);}
	.st17{fill:none;stroke:#EFC100;stroke-width:7;stroke-linecap:round;stroke-linejoin:round;stroke-miterlimit:10;}
	.st18{fill:none;stroke:url(#SVGID_15_);stroke-width:9;stroke-linecap:round;stroke-linejoin:round;stroke-miterlimit:10;}
	.st19{fill:none;stroke:url(#SVGID_16_);stroke-width:9;stroke-linecap:round;stroke-linejoin:round;stroke-miterlimit:10;}
	.st20{fill:none;stroke:url(#SVGID_17_);stroke-width:9;stroke-linecap:round;stroke-linejoin:round;stroke-miterlimit:10;}
	.st21{fill:url(#SVGID_18_);stroke:url(#SVGID_19_);stroke-width:9;stroke-linecap:round;stroke-miterlimit:10;}
	.st22{fill:url(#SVGID_20_);stroke:url(#SVGID_21_);stroke-width:9;stroke-linecap:round;stroke-miterlimit:10;}
	.st23{fill:url(#SVGID_22_);stroke:url(#SVGID_23_);stroke-width:9;stroke-linecap:round;stroke-miterlimit:10;}
	.st24{fill:none;stroke:url(#SVGID_24_);stroke-width:9;stroke-linecap:round;stroke-miterlimit:10;}
	.st25{fill:none;stroke:url(#SVGID_25_);stroke-width:9;stroke-linecap:round;stroke-miterlimit:10;}
	.st26{fill:none;stroke:url(#SVGID_26_);stroke-width:9;stroke-linecap:round;stroke-linejoin:round;stroke-miterlimit:10;}
	.st27{fill:none;stroke:url(#SVGID_27_);stroke-width:9;stroke-linecap:round;stroke-linejoin:round;stroke-miterlimit:10;}
	.st28{fill:none;stroke:url(#SVGID_28_);stroke-width:9;stroke-linecap:round;stroke-miterlimit:10;}
	.st29{fill:none;stroke:url(#SVGID_29_);stroke-width:9;stroke-linecap:round;stroke-miterlimit:10;}
	.st30{fill:none;stroke:url(#SVGID_30_);stroke-width:9;stroke-linecap:round;stroke-miterlimit:10;}
	.st31{fill:none;stroke:url(#SVGID_31_);stroke-width:9;stroke-linecap:round;stroke-miterlimit:10;}
	.st32{fill:none;stroke:url(#SVGID_32_);stroke-width:9;stroke-linecap:round;stroke-miterlimit:10;}
	.st33{fill:none;stroke:url(#SVGID_33_);stroke-width:9;stroke-linecap:round;stroke-miterlimit:10;}
	.st34{fill:none;stroke:url(#SVGID_34_);stroke-width:9;stroke-linecap:round;stroke-linejoin:round;stroke-miterlimit:10;}
	.st35{fill:none;stroke:url(#SVGID_35_);stroke-width:9;stroke-linecap:round;stroke-linejoin:round;stroke-miterlimit:10;}
	.st36{fill:none;stroke:url(#SVGID_36_);stroke-width:9;stroke-linecap:round;stroke-linejoin:round;stroke-miterlimit:10;}
	.st37{fill:none;stroke:url(#SVGID_37_);stroke-width:9;stroke-linecap:round;stroke-linejoin:round;stroke-miterlimit:10;}
	.st38{fill:none;stroke:url(#SVGID_38_);stroke-width:9;stroke-linecap:round;stroke-miterlimit:10;}
	.st39{fill:none;stroke:url(#SVGID_39_);stroke-width:9;stroke-linecap:round;stroke-linejoin:round;stroke-miterlimit:10;}
	.st40{fill:none;stroke:url(#SVGID_40_);stroke-width:9;stroke-linecap:round;stroke-linejoin:round;stroke-miterlimit:10;}
	.st41{fill:none;stroke:url(#SVGID_41_);stroke-width:9;stroke-linecap:round;stroke-linejoin:round;stroke-miterlimit:10;}
	.st42{fill:none;stroke:url(#SVGID_42_);stroke-width:9;stroke-linecap:round;stroke-linejoin:round;stroke-miterlimit:10;}
	.st43{fill:none;stroke:url(#SVGID_43_);stroke-width:9;stroke-linecap:round;stroke-linejoin:round;stroke-miterlimit:10;}
	.st44{fill:url(#SVGID_44_);}
	.st45{fill:#FFFFFF;}
	.st46{fill:#FCF9E3;}
	.st47{fill:#D3B400;}
</style>
<g>
	<linearGradient id="SVGID_1_" gradientUnits="userSpaceOnUse" x1="36.1672" y1="22.1754" x2="78.273" y2="28.3818">
		<stop  offset="0" style="stop-color:#FEBC85"/>
		<stop  offset="1" style="stop-color:#FF7A80"/>
	</linearGradient>
	<path class="st0" d="M57.2,46.6c11.7,0,21.3-9.5,21.3-21.3S69,4,57.2,4s-21.3,9.5-21.3,21.3S45.5,46.6,57.2,46.6z M57.2,9.4
		c8.8,0,15.9,7.1,15.9,15.9c0,8.8-7.1,15.9-15.9,15.9c-8.8,0-15.9-7.1-15.9-15.9C41.3,16.5,48.5,9.4,57.2,9.4z"/>
	<linearGradient id="SVGID_2_" gradientUnits="userSpaceOnUse" x1="22.645" y1="74.4708" x2="97.2698" y2="85.4706">
		<stop  offset="0" style="stop-color:#FEBC85"/>
		<stop  offset="1" style="stop-color:#FF7A80"/>
	</linearGradient>
	<path style="fill:url(#SVGID_2_);" d="M84.1,65.7c-7.1-9.6-16.7-15-26.9-15c-10.2,0-19.8,5.3-26.9,15c-7,9.4-10.8,21.9-10.9,35.1
		c0,0.7,0.3,1.4,0.8,1.9c0.5,0.5,1.2,0.8,1.9,0.8h70.1c0.7,0,1.4-0.3,1.9-0.8c0.5-0.5,0.8-1.2,0.8-1.9
		C94.9,87.6,91.1,75.1,84.1,65.7z M24.9,98.1c1.1-23.4,15.2-42,32.3-42c17.1,0,31.2,18.6,32.3,42H24.9z"/>
	<linearGradient id="SVGID_3_" gradientUnits="userSpaceOnUse" x1="43.1773" y1="78.8955" x2="70.1263" y2="82.8678">
		<stop  offset="0" style="stop-color:#FEBC85"/>
		<stop  offset="1" style="stop-color:#FF7A80"/>
	</linearGradient>
	<path style="fill:url(#SVGID_3_);" d="M57.3,71c-2.6-1.8-5.4-2.4-8-1.7c-2.7,0.7-4.7,2.8-5.4,5.4c-0.9,3.3,0.3,6.9,3.4,9.9l8.2,8.2
		c0.5,0.5,1.2,0.8,1.9,0.8c0.7,0,1.4-0.3,1.9-0.8l8.2-8.2c4.7-4.7,4.2-10.2,1.2-13.2C66,68.9,61.5,68.1,57.3,71z M63.6,80.9
		l-6.3,6.3L51,80.9c-1.6-1.6-2.3-3.3-2-4.7c0.2-0.8,0.8-1.4,1.6-1.6c0.2-0.1,0.5-0.1,0.7-0.1c1.2,0,2.6,0.7,4,2.1
		c1.1,1.1,2.8,1.1,3.8,0c1.2-1.2,2.4-1.8,3.5-1.9c0.8-0.1,1.5,0.2,2,0.7C65.8,76.4,65.9,78.5,63.6,80.9z"/>
</g>
</svg>
